<svg width="2024" height="768" viewBox="0 0 2024 768" fill="none" xmlns="http://www.w3.org/2000/svg">
<path d="M1650.25 768C1616.12 768 1589.72 760 1571.05 744C1552.92 728.534 1543.85 708.534 1543.85 684C1543.85 666.4 1549.18 651.2 1559.85 638.4C1570.52 625.6 1585.98 619.2 1606.25 619.2C1624.38 619.2 1638.78 623.734 1649.45 632.8C1660.12 642.4 1665.45 654.667 1665.45 669.6C1665.45 677.067 1664.12 686.667 1661.45 698.4C1660.94 701.226 1660.35 704.314 1659.68 707.666C1655.57 728.264 1670.89 748.281 1691.05 742.4V742.4C1703.85 739.2 1716.38 731.467 1728.65 719.2C1740.92 706.934 1753.18 688 1765.45 662.4V662.4C1772.08 647.601 1772.28 630.713 1766 615.761L1603.05 228C1596.12 210.934 1590.25 199.734 1585.45 194.4C1580.65 188.534 1572.38 184 1560.65 180.8L1546.44 177.71C1543.99 177.179 1542.25 175.017 1542.25 172.516V172.516C1542.25 169.58 1544.63 167.2 1547.57 167.2H1814.78C1817.58 167.2 1819.85 169.468 1819.85 172.266V172.266C1819.85 174.847 1817.91 177.016 1815.34 177.301L1791.05 180C1778.78 181.067 1770.52 184.8 1766.25 191.2C1762.52 197.067 1763.85 208.534 1770.25 225.6L1853.81 435.697C1854.08 436.363 1854.72 436.8 1855.44 436.8V436.8C1856.17 436.8 1856.82 436.347 1857.08 435.664L1935.05 227.2C1941.45 210.134 1942.25 198.4 1937.45 192C1932.65 185.6 1924.38 181.6 1912.65 180L1889.15 177.314C1886.59 177.021 1884.65 174.853 1884.65 172.274V172.274C1884.65 169.472 1886.92 167.2 1889.72 167.2H2017.95C2020.77 167.2 2023.05 169.483 2023.05 172.299V172.299C2023.05 174.871 2021.14 177.04 2018.58 177.359L2003.85 179.2C1992.12 181.334 1983.05 185.334 1976.65 191.2C1970.25 196.534 1963.85 207.734 1957.45 224.8L1824.65 575.2C1810.78 611.467 1797.98 642.134 1786.25 667.2C1774.52 692.267 1762.52 712 1750.25 726.4C1737.98 741.334 1723.85 752 1707.85 758.4C1691.85 764.8 1672.65 768 1650.25 768Z" fill="#171616"/>
<path d="M1074.19 595.2C1050.19 595.2 1028.86 591.467 1010.19 584C991.527 576.534 976.861 564 966.194 546.4C956.061 528.267 950.994 504.267 950.994 474.4V206C950.994 191.641 939.354 180 924.994 180H903.216C900.884 180 898.994 178.11 898.994 175.779V175.779C898.994 173.628 900.617 171.823 902.751 171.56C929.703 168.231 950.317 161.978 964.594 152.8C980.061 143.2 991.527 129.334 998.994 111.2C1001.46 105.435 1003.81 99.2375 1006.02 92.6075C1016 62.7693 1040.01 38.7834 1071.19 34.6043L1091.29 31.9105C1094.73 31.4507 1098.21 32.1703 1101.18 33.9515V33.9515C1105.78 36.7115 1108.59 41.6825 1108.59 47.0469V116.4C1108.59 144.456 1131.34 167.2 1159.39 167.2H1203.79C1207.33 167.2 1210.19 170.066 1210.19 173.6V173.6C1210.19 177.135 1207.33 180 1203.79 180H1159.39C1131.34 180 1108.59 202.744 1108.59 230.8V451.2C1108.59 473.067 1112.06 490.4 1118.99 503.2C1126.46 515.467 1138.46 521.6 1154.99 521.6C1167.26 521.6 1178.99 518.934 1190.19 513.6C1200.09 508.888 1209.57 502.094 1218.63 493.219C1220.58 491.312 1223.74 491.37 1225.54 493.421V493.421C1226.88 494.954 1227.06 497.184 1225.97 498.903C1207.25 528.456 1186.52 551.755 1163.79 568.8C1140.33 586.4 1110.46 595.2 1074.19 595.2Z" fill="#171616"/>
<path d="M1395.29 595.2C1371.29 595.2 1349.95 591.467 1331.29 584C1312.62 576.534 1297.95 564 1287.29 546.4C1277.15 528.267 1272.09 504.267 1272.09 474.4V206C1272.09 191.641 1260.45 180 1246.09 180H1224.31C1221.98 180 1220.09 178.11 1220.09 175.779V175.779C1220.09 173.628 1221.71 171.823 1223.85 171.56C1250.8 168.231 1271.41 161.978 1285.69 152.8C1301.15 143.2 1312.62 129.334 1320.09 111.2C1322.56 105.435 1324.9 99.2375 1327.12 92.6075C1337.09 62.7693 1361.11 38.7834 1392.29 34.6043L1412.39 31.9105C1415.82 31.4507 1419.3 32.1703 1422.27 33.9515V33.9515C1426.87 36.7115 1429.69 41.6825 1429.69 47.0469V116.4C1429.69 144.456 1452.43 167.2 1480.49 167.2H1524.89C1528.42 167.2 1531.29 170.066 1531.29 173.6V173.6C1531.29 177.135 1528.42 180 1524.89 180H1480.49C1452.43 180 1429.69 202.744 1429.69 230.8V451.2C1429.69 473.067 1433.15 490.4 1440.09 503.2C1447.55 515.467 1459.55 521.6 1476.09 521.6C1488.35 521.6 1500.09 518.934 1511.29 513.6C1521.18 508.888 1530.66 502.094 1539.73 493.219C1541.67 491.312 1544.84 491.37 1546.63 493.421V493.421C1547.97 494.954 1548.16 497.184 1547.07 498.903C1528.34 528.456 1507.62 551.755 1484.89 568.8C1461.42 586.4 1431.55 595.2 1395.29 595.2Z" fill="#171616"/>
<path d="M669.963 595.2C624.629 595.2 585.696 586.933 553.163 570.4C521.163 553.867 496.629 529.867 479.563 498.4C463.029 466.4 454.763 428 454.763 383.2C454.763 334.667 465.163 293.6 485.963 260C507.296 226.4 535.563 200.8 570.763 183.2C606.496 165.067 645.696 156 688.363 156C725.696 156 758.229 162.4 785.963 175.2C813.696 187.467 835.296 205.333 850.763 228.8C866.229 252.267 873.963 280.533 873.963 313.6C873.963 319.467 873.696 325.6 873.163 332V332C873.163 344.166 862.91 353.6 850.744 353.6H697.657C653.201 353.6 614.211 390.934 629.163 432.8V432.8C637.696 454.667 650.496 471.467 667.563 483.2C684.629 494.933 706.496 500.8 733.163 500.8C755.563 500.8 777.163 497.867 797.963 492C818.361 485.881 840.466 474.154 864.277 456.819C866.271 455.368 868.943 455.228 871.058 456.497V456.497C873.646 458.05 874.712 461.27 873.497 464.032C856.416 502.868 830.972 534.324 797.163 558.4C761.963 582.933 719.563 595.2 669.963 595.2ZM620.665 284.89C617.684 315.363 642.565 340.8 673.184 340.8H696.317C712.052 340.8 725.039 328.508 725.963 312.8V312.8C726.496 303.2 726.763 293.6 726.763 284C726.763 244 723.296 215.2 716.363 197.6C709.429 179.467 698.229 170.4 682.763 170.4C671.029 170.4 660.363 174.933 650.763 184C641.696 193.067 634.229 210.133 628.363 235.2C625.161 248.587 622.595 265.15 620.665 284.89Z" fill="#171616"/>
<path d="M173.6 595.2C143.733 595.2 115.467 589.333 88.8 577.6C62.6667 565.867 41.3333 549.867 24.8 529.6C8.26667 509.333 0 486.667 0 461.6C0 448.267 2.93333 434.933 8.8 421.6C14.6667 407.733 23.4667 396.533 35.2 388C46.9333 378.933 61.6 374.4 79.2 374.4C100.533 374.4 117.6 379.2 130.4 388.8C143.2 398.4 149.6 412 149.6 429.6C149.6 446.133 143.733 465.067 132 486.4C125.286 498.869 117.326 511.913 108.121 525.532C97.2702 541.584 99.9866 563.127 117.6 571.2V571.2C130.933 576.533 145.867 579.2 162.4 579.2C177.333 579.2 189.867 575.467 200 568C210.133 560 217.6 547.2 222.4 529.6C227.733 511.467 230.4 487.467 230.4 457.6V48C230.4 34.1333 228.533 24.8 224.8 20C221.6 14.6667 213.867 11.7333 201.6 11.2L167.098 9.79174C164.473 9.68459 162.4 7.52524 162.4 4.89791V4.89791C162.4 2.19287 164.593 0 167.298 0H447.137C449.823 0 452 2.1773 452 4.86314V4.86314C452 7.49914 449.9 9.65524 447.265 9.72459L421.6 10.4C410.933 10.9333 404 13.8667 400.8 19.2C397.6 24.5333 396 34.1333 396 48V371.2C396 448 376.533 504.533 337.6 540.8C299.2 577.067 244.533 595.2 173.6 595.2Z" fill="#171616"/>
</svg>
