<svg width="36" height="36" viewBox="0 0 36 36" fill="none" xmlns="http://www.w3.org/2000/svg">
<path d="M32.625 18C32.6258 15.5672 32.0197 13.1727 30.8616 11.0332C29.7034 8.89379 28.0299 7.07704 25.9926 5.74752C23.9552 4.418 21.6184 3.61772 19.1937 3.41916C16.769 3.2206 14.3331 3.63002 12.1066 4.61036C9.88008 5.59069 7.93329 7.11096 6.44253 9.03348C4.95177 10.956 3.96415 13.22 3.56911 15.6205C3.17407 18.021 3.38409 20.4822 4.18015 22.781C4.97622 25.0799 6.33317 27.1438 8.12813 28.7859L8.31094 28.9547C10.9846 31.3194 14.4307 32.6247 18 32.6247C21.5693 32.6247 25.0154 31.3194 27.6891 28.9547L27.8719 28.7859C29.3711 27.4179 30.5683 25.7519 31.3867 23.8946C32.2052 22.0373 32.6269 20.0296 32.625 18ZM5.625 18C5.62426 15.9957 6.11035 14.0213 7.04147 12.2464C7.97259 10.4716 9.32088 8.94941 10.9704 7.81089C12.6199 6.67236 14.5213 5.95152 16.511 5.71035C18.5007 5.46918 20.5192 5.71491 22.3929 6.42639C24.2667 7.13788 25.9396 8.29383 27.2677 9.79485C28.5959 11.2959 29.5396 13.097 30.0178 15.0434C30.4959 16.9899 30.4941 19.0233 30.0125 20.9688C29.5309 22.9144 28.584 24.7139 27.2531 26.2125C25.9988 24.3934 24.2317 22.9885 22.1766 22.1766C23.2788 21.3084 24.0831 20.1184 24.4777 18.7719C24.8722 17.4254 24.8373 15.9895 24.3779 14.6637C23.9185 13.338 23.0574 12.1884 21.9144 11.3747C20.7713 10.5611 19.4031 10.1239 18 10.1239C16.5969 10.1239 15.2287 10.5611 14.0857 11.3747C12.9426 12.1884 12.0815 13.338 11.6221 14.6637C11.1627 15.9895 11.1278 17.4254 11.5224 18.7719C11.9169 20.1184 12.7212 21.3084 13.8234 22.1766C11.7684 22.9885 10.0012 24.3934 8.74688 26.2125C6.73224 23.9518 5.62087 21.0282 5.625 18ZM13.5 16.875C13.5 15.985 13.7639 15.115 14.2584 14.3749C14.7529 13.6349 15.4557 13.0581 16.2779 12.7176C17.1002 12.377 18.005 12.2878 18.8779 12.4615C19.7508 12.6351 20.5526 13.0637 21.182 13.693C21.8113 14.3224 22.2399 15.1242 22.4135 15.9971C22.5872 16.87 22.4981 17.7748 22.1575 18.5971C21.8169 19.4194 21.2401 20.1222 20.5001 20.6166C19.76 21.1111 18.89 21.375 18 21.375C16.8077 21.3713 15.6652 20.896 14.8221 20.0529C13.979 19.2098 13.5037 18.0673 13.5 16.875ZM10.4203 27.7734C11.2344 26.5018 12.3554 25.4555 13.6799 24.7307C15.0045 24.006 16.4901 23.6261 18 23.6261C19.5099 23.6261 20.9955 24.006 22.3201 24.7307C23.6446 25.4555 24.7656 26.5018 25.5797 27.7734C23.4125 29.4588 20.7454 30.3739 18 30.3739C15.2546 30.3739 12.5875 29.4588 10.4203 27.7734Z" fill="white"/>
</svg>
